<?xml version="1.0" standalone="no"?>
<!DOCTYPE svg PUBLIC "-//W3C//DTD SVG 20010904//EN"
 "http://www.w3.org/TR/2001/REC-SVG-20010904/DTD/svg10.dtd">
<svg version="1.0" xmlns="http://www.w3.org/2000/svg"
 width="225.000000pt" height="225.000000pt" viewBox="0 0 225.000000 225.000000"
 preserveAspectRatio="xMidYMid meet">

<g transform="translate(0.000000,225.000000) scale(0.100000,-0.100000)"
fill="purple" stroke="none">
<path d="M1065 2241 c-58 -16 -84 -30 -125 -67 -43 -39 -90 -119 -90 -154 0
-19 -6 -20 -205 -20 -223 0 -249 -5 -295 -55 l-25 -27 0 -918 0 -918 25 -27
c52 -56 32 -55 782 -55 652 0 695 1 727 18 19 10 43 34 53 53 17 32 18 81 18
927 0 979 2 938 -58 979 -23 16 -56 19 -241 23 l-214 5 -13 46 c-17 58 -89
140 -147 168 -48 23 -146 34 -192 22z m141 -132 c40 -19 84 -71 84 -98 0 -8
-48 -11 -160 -11 -180 0 -184 2 -128 66 58 66 128 80 204 43z m-489 -262 c16
-60 89 -138 155 -168 48 -21 71 -24 229 -27 138 -3 190 0 238 12 102 26 174
91 206 183 l13 38 66 3 66 3 0 -821 0 -820 -560 0 -560 0 0 820 0 820 68 0 68
0 11 -43z"/>
<path d="M1386 1474 c-49 -56 -65 -64 -86 -39 -15 18 -20 15 -59 -34 l-30 -38
64 -51 64 -52 59 63 c33 34 73 78 91 98 l31 37 -44 35 -43 36 -47 -55z"/>
<path d="M750 1365 l0 -55 190 0 190 0 0 55 0 55 -190 0 -190 0 0 -55z"/>
<path d="M1380 1104 l-52 -55 -22 20 -22 21 -33 -40 c-18 -23 -31 -47 -28 -53
3 -7 30 -33 61 -57 l57 -43 82 88 c45 48 84 92 86 97 3 10 -57 78 -70 78 -3 0
-30 -25 -59 -56z"/>
<path d="M750 1005 l0 -55 190 0 190 0 0 55 0 55 -190 0 -190 0 0 -55z"/>
<path d="M1382 744 c-49 -56 -49 -56 -74 -40 -25 17 -26 16 -61 -25 l-36 -41
58 -49 c33 -27 63 -49 69 -49 5 0 48 42 96 94 l86 94 -40 36 c-22 20 -42 36
-44 36 -2 0 -27 -25 -54 -56z"/>
<path d="M750 640 l0 -60 190 0 190 0 0 60 0 60 -190 0 -190 0 0 -60z"/>
</g>
</svg>
